<?xml version="1.0" encoding="UTF-8" standalone="no"?>
<!-- Created with Inkscape (http://www.inkscape.org/) -->

<svg
   xmlns:dc="http://purl.org/dc/elements/1.1/"
   xmlns:cc="http://creativecommons.org/ns#"
   xmlns:rdf="http://www.w3.org/1999/02/22-rdf-syntax-ns#"
   xmlns:svg="http://www.w3.org/2000/svg"
   xmlns="http://www.w3.org/2000/svg"
   xmlns:sodipodi="http://sodipodi.sourceforge.net/DTD/sodipodi-0.dtd"
   xmlns:inkscape="http://www.inkscape.org/namespaces/inkscape"
   width="882.17169"
   height="854.9187"
   viewBox="0 0 233.40793 226.19718"
   version="1.1"
   id="svg8"
   sodipodi:docname="drawing.svg"
   inkscape:version="0.92.3 (2405546, 2018-03-11)">
  <defs
     id="defs2">
    <linearGradient
       gradientUnits="userSpaceOnUse"
       gradientTransform="matrix(1.8341689,-0.04825629,0.07398848,1.19627,-595.71555,-641.56585)"
       y2="497.17001"
       x2="949.45001"
       y1="825.54999"
       x1="949.45001"
       id="a6110406-8b9c-48da-9b9b-78691cfdbd93">
      <stop
         id="stop3713"
         stop-opacity="0.25"
         stop-color="gray"
         offset="0" />
      <stop
         id="stop3715"
         stop-opacity="0.12"
         stop-color="gray"
         offset="0.54" />
      <stop
         id="stop3717"
         stop-opacity="0.1"
         stop-color="gray"
         offset="1" />
    </linearGradient>
    <linearGradient
       gradientUnits="userSpaceOnUse"
       gradientTransform="rotate(-2.31,725.20023,516.77716)"
       y2="497.17001"
       x2="949.45001"
       y1="825.54999"
       x1="949.45001"
       id="a6110406-8b9c-48da-9b9b-78691cfdbd93-4">
      <stop
         id="stop4335"
         stop-opacity="0.25"
         stop-color="gray"
         offset="0" />
      <stop
         id="stop4337"
         stop-opacity="0.12"
         stop-color="gray"
         offset="0.54" />
      <stop
         id="stop4339"
         stop-opacity="0.1"
         stop-color="gray"
         offset="1" />
    </linearGradient>
  </defs>
  <sodipodi:namedview
     id="base"
     pagecolor="#ffffff"
     bordercolor="#666666"
     borderopacity="1.0"
     inkscape:pageopacity="0.0"
     inkscape:pageshadow="2"
     inkscape:zoom="0.49497475"
     inkscape:cx="487.44381"
     inkscape:cy="481.67172"
     inkscape:document-units="mm"
     inkscape:current-layer="layer1"
     showgrid="false"
     inkscape:snap-text-baseline="false"
     inkscape:window-width="1366"
     inkscape:window-height="713"
     inkscape:window-x="0"
     inkscape:window-y="27"
     inkscape:window-maximized="1"
     units="px"
     fit-margin-top="0"
     fit-margin-left="0"
     fit-margin-right="0"
     fit-margin-bottom="0"
     inkscape:pagecheckerboard="false" />
  <metadata
     id="metadata5">
    <rdf:RDF>
      <cc:Work
         rdf:about="">
        <dc:format>image/svg+xml</dc:format>
        <dc:type
           rdf:resource="http://purl.org/dc/dcmitype/StillImage" />
        <dc:title></dc:title>
      </cc:Work>
    </rdf:RDF>
  </metadata>
  <g
     inkscape:label="Layer 1"
     inkscape:groupmode="layer"
     id="layer1"
     transform="translate(19.465253,-36.591382)">
    <g
       id="g3877"
       transform="matrix(0.24417732,0,0,0.27077529,28.566521,-97.079075)">
      <g
         id="g4039"
         transform="matrix(0.5,0,0,0.5,9.8217894,822.36739)">
        <path
           id="path3890"
           d="m 535.49185,-361.92582 c 83.68778,-9.57794 180.94107,-7.91376 285.81233,0 -21.27531,-78.69477 -22.2482,-155.77328 0,-230.98407 H 535.49185 a 998.15873,651.01283 0 0 0 0,230.98407 z"
           inkscape:connector-curvature="0"
           style="fill:#f2f2f2;stroke-width:1.48247492" />
        <rect
           id="rect3892"
           transform="scale(-1)"
           height="21.275007"
           width="99.419365"
           y="584.81653"
           x="-720.23273"
           style="fill:#3f3d56;stroke-width:1.48247492" />
        <path
           id="path3894"
           d="m 313.00981,94.139958 c 83.68777,-9.577954 180.94104,-7.913796 285.81233,0 -21.2753,-78.694785 -22.24821,-155.773296 0,-230.984098 H 313.00981 a 998.15873,651.01283 0 0 0 0,230.984098 z"
           inkscape:connector-curvature="0"
           style="opacity:0.1;stroke-width:1.48247492" />
        <path
           id="path3896"
           d="m 300.1602,83.36476 c 83.68776,-9.577941 180.94103,-7.913783 285.81232,0 -21.2753,-78.6947859 -22.2482,-155.773283 0,-230.98408 H 300.1602 a 998.15873,651.01283 0 0 0 0,230.98408 z"
           inkscape:connector-curvature="0"
           style="fill:#f2f2f2;stroke-width:1.48247492" />
        <rect
           id="rect3898"
           transform="scale(-1)"
           height="21.275007"
           width="99.419365"
           y="139.52594"
           x="-484.86432"
           style="fill:#3f3d56;stroke-width:1.48247492" />
        <path
           id="path3900"
           stroke-miterlimit="10"
           d="m 54.548814,-293.68297 c 0,0 110.855546,-204.50106 357.825296,-206.3089"
           inkscape:connector-curvature="0"
           style="fill:none;stroke:#3f3d56;stroke-width:2.96494985;stroke-miterlimit:10" />
        <path
           id="path3902"
           d="m 434.53054,-499.60875 c -10.51835,2.39449 -23.58825,6.47709 -31.7753,10.91886 l 6.71852,-11.29 -5.91082,-11.48157 c 7.85663,4.68123 20.63283,9.19482 30.9676,11.85271 z"
           inkscape:connector-curvature="0"
           style="fill:#3f3d56;stroke-width:1.48247492" />
        <path
           id="path3904"
           stroke-miterlimit="10"
           d="m 63.727114,-215.86217 c 0,0 -10.02269,164.549074 134.113366,186.949479"
           inkscape:connector-curvature="0"
           style="fill:none;stroke:#3f3d56;stroke-width:2.96494985;stroke-miterlimit:10" />
        <path
           id="path3906"
           d="m 219.75827,-26.697786 c -10.92219,1.388811 -24.74471,4.274155 -33.79451,7.925753 l 9.0498,-10.571661 -3.41433,-11.900593 c 6.79196,5.339697 18.4851,10.954782 28.15904,14.546501 z"
           inkscape:connector-curvature="0"
           style="fill:#3f3d56;stroke-width:1.48247492" />
        <path
           id="path3908"
           stroke-miterlimit="10"
           d="m 93.097684,-269.7381 c 0,0 779.458146,-84.74086 913.222716,20.08973"
           inkscape:connector-curvature="0"
           style="fill:none;stroke:#3f3d56;stroke-width:2.96494985;stroke-miterlimit:10" />
        <path
           id="path3910"
           d="m 1018.2706,-237.41255 c -8.9948,-4.27415 -21.64245,-8.93143 -31.88552,-10.77518 l 18.02622,-2.86142 11.014,-9.73357 c -1.3401,6.89611 0.312,16.30644 2.8453,23.37017 z"
           inkscape:connector-curvature="0"
           style="fill:#3f3d56;stroke-width:1.48247492" />
        <g
           id="g3914"
           style="opacity:0.1"
           transform="matrix(1.8356604,0,0,1.1972429,-364.8996,-606.09155)">
          <ellipse
             id="ellipse3912"
             ry="33"
             rx="494.5"
             cy="748.42999"
             cx="494.5"
             style="fill:#ff4500" />
        </g>
        <path
           id="path3916"
           d="M 1339.9885,-4.5248455 C 1265.8461,22.532834 1192.0159,63.849698 1118.3507,113.16414 1058.6551,43.388812 984.82487,-16.78462 894.74897,-65.955374 L 1116.3866,-183.64436 a 998.379,651.15649 0 0 1 223.6019,179.1195145 z"
           inkscape:connector-curvature="0"
           style="opacity:0.1;stroke-width:1.48247492" />
        <path
           id="path3918"
           d="M 1343.6598,-14.102787 C 1269.5173,12.954894 1195.6871,54.271757 1122.0221,103.5862 1062.3264,33.810871 988.49609,-26.36256 898.42029,-75.533328 L 1120.0579,-193.22231 a 998.379,651.15649 0 0 1 223.6019,179.119523 z"
           inkscape:connector-curvature="0"
           style="fill:#f2f2f2;stroke-width:1.48247492" />
        <rect
           id="rect3920"
           transform="matrix(0.88321251,-0.46897299,0.78044247,0.6252276,0,0)"
           height="26.388275"
           width="87.294167"
           y="369.90378"
           x="764.7171"
           style="fill:#3f3d56;stroke-width:1.54708827" />
        <rect
           id="rect3922"
           transform="matrix(0.88321251,-0.46897299,0.78044247,0.6252276,0,0)"
           height="19.304873"
           width="154.73116"
           y="471.7439"
           x="730.42871"
           style="fill:#ff4500;stroke-width:1.54708827" />
        <path
           id="path3924"
           d="m 1358.1431,274.74405 a 17.95276,11.709036 0 0 0 -3.9834,-2.89735 c -8.0218,-4.93263 -11.7482,-12.1999 -13.7308,-19.29955 -1.9825,-7.09964 -2.5515,-14.3669 -5.7271,-21.33486 a 108.63439,70.852837 0 0 0 -6.4616,-10.38009 c -1.8357,-2.55014 -4.1487,-7.57856 -7.5078,-9.36245 a 5.1949192,3.3881975 0 0 0 -2.313,-0.74229 27.002564,17.611444 0 0 0 -6.645,-5.75874 c -5.25,-3.10087 -11.6566,-5.56718 -15.1625,-9.57794 a 33.041889,21.550373 0 0 0 -3.543,-3.95091 c -2.368,-1.70007 -6.1128,-2.39448 -8.2972,-4.19034 -2.8452,-2.32265 -2.2028,-5.63901 -1.8357,-8.60817 0.3671,-2.96917 0,-6.50105 -3.9283,-8.04548 -2.3496,-0.94582 -5.3785,-0.86201 -7.8199,-1.68811 -3.6714,-1.19726 -5.1216,-4.22627 -5.048,-6.92006 0.073,-2.6938 1.3584,-5.31577 1.6887,-7.99759 1.028,-8.57226 -7.6363,-17.09663 -4.2954,-25.40549 1.2666,-3.14876 4.1669,-5.89045 6.3147,-8.81171 a 29.554133,19.275611 0 0 0 1.8357,-3.041 64.890597,42.322539 0 0 0 17.8792,2.80155 c -10.1144,-14.78595 -7.5444,-31.990332 -12.2621,-47.88972 l 0.6058,-0.550734 a 38.145024,24.878709 0 0 0 7.7465,-14.187321 c 0,-5.986221 -4.2405,-11.45762 -6.1494,-17.240304 -1.6339,-4.932649 -1.5604,-10.068809 -3.6715,-14.917652 a 69.112617,45.076198 0 0 0 -5.8007,-8.644086 q -3.4326,-4.142466 -7.2142,-8.1652014 -3.5244,-7.61445474 -7.0671,-15.2289361 c -3.3043,-7.1834525 -6.7002,-14.3669055 -13.125,-20.5207395 -2.3496,-2.262787 -3.0656,-6.824286 -6.6817,-8.201113 a 16.172168,10.54771 0 0 0 -9.5455,-1.077513 c -5.1032,-1.867709 -9.5822,-4.561499 -10.2247,-8.249009 a 12.207141,7.9616655 0 0 1 0.3671,-2.394488 h 0.6241 c 8.077,-0.490868 12.1705,-5.136173 16.3741,-9.19482 6.792,-6.596807 4.2037,-15.504297 0,-22.999047 a 24.010438,15.659938 0 0 0 -5.5069,-6.333404 c -5.8926,-3.591733 -15.2177,-2.789593 -22.8172,-4.525587 a 73.701768,48.069304 0 0 0 -7.5447,-1.855725 c -5.0479,-0.7782 -10.3348,0.29931 -14.9605,1.819813 -4.626,1.5205 -8.9397,3.483972 -13.7859,4.693187 -4.8461,1.209215 -10.8304,2.143069 -12.0236,5.387593 a 9.1783022,5.9862146 0 0 0 0.4039,3.268477 18.723737,12.211878 0 0 0 5.6721,5.32774 32.71147,21.334869 0 0 0 19.9536,29.727529 c 1.3952,1.448664 2.6986,2.933252 3.8918,4.465722 2.1292,2.681819 3.9282,5.84255 3.194,8.715922 a 41.027011,26.758381 0 0 0 -3.6714,2.921282 c -5.2683,4.788963 -8.2605,10.416005 -11.0139,16.007135 a 259.50732,169.25423 0 0 0 -8.8663,21.885596 c -4.4789,6.201729 -9.9493,12.140055 -13.1984,18.665026 a 64.615249,42.142951 0 0 1 -17.2185,-1.496558 l -15.493,-2.298712 c -5.3968,-0.790183 -11.0139,-1.664158 -15.2358,-3.97484 -2.2397,-1.197244 -3.9835,-2.789567 -6.2598,-3.986824 -2.2761,-1.197244 -6.847,-2.574058 -9.3434,-1.592322 a 7.3426419,4.7889719 0 0 0 -1.2666,0.634527 c -2.2763,-3.005075 -7.8567,4.657288 -10.5,1.819813 -3.7815,-4.082587 -17.0534,0.646511 -24.2124,-0.119704 a 16.979859,11.074498 0 0 0 -12.4641,1.87968 c -4.1853,1.951502 -6.8103,5.986208 -3.6713,8.715935 a 22.964113,14.977509 0 0 0 2.5516,1.712053 52.481532,34.229175 0 0 1 5.6722,5.124203 c 5.6538,5.303773 18.6686,0.622557 28.5445,1.843742 -0.2203,0.407061 6.9203,-9.685688 6.7001,-9.266656 -1.3033,2.478295 -4.0752,5.49534 -3.3777,8.081395 l 68.9108,15.384566 a 41.963198,27.368973 0 0 0 13.8776,1.987427 23.331244,15.216958 0 0 0 5.5069,-0.466914 v 2.298698 0.08379 c 0.1836,15.791627 -3.6713,31.487491 -4.3873,47.267159 -0.1284,2.87338 0,5.98623 2.7903,8.23703 3.1207,2.46632 8.6643,2.94521 13.4922,2.39449 a 30.563747,19.934095 0 0 0 3.4143,-0.49087 127.00935,82.837241 0 0 1 3.5244,12.09215 l 4.5708,21.26304 a 49.728041,32.433312 0 0 1 0.716,6.63271 c -0.5324,5.00449 -4.5893,9.50612 -7.5263,14.13946 -2.9369,4.63332 -4.6809,10.16458 -0.8261,14.4986 1.2116,1.34092 2.8821,2.49027 3.965,3.87908 a 24.047152,15.683883 0 0 1 1.8358,6.78835 q 0.4222,9.69767 0.8075,19.3714 a 3.4693982,2.2627893 0 0 0 -2.3128,0.31127 c -3.8182,1.92758 -3.3961,11.17028 -3.6713,14.03169 -0.2937,4.78897 0,9.67374 -0.4038,14.51059 a 132.75496,86.584609 0 0 1 -4.9196,19.31153 18.888946,12.31963 0 0 1 -4.2036,5.51929 18.099612,11.804816 0 0 1 -7.4713,2.52618 85.321499,55.647853 0 0 1 -28.2875,2.50223 c -3.8731,-0.0718 -7.9117,-0.32325 -11.5096,0.64652 -3.5978,0.96977 -6.4982,3.59173 -5.1949,5.98622 1.1198,2.01136 4.5159,2.96916 7.5814,3.72343 a 121.68593,79.365238 0 0 1 20.1922,5.98621 56.53834,36.875082 0 0 0 7.8016,2.89733 40.21932,26.231593 0 0 0 8.0402,1.29302 l 32.5463,3.59173 c 6.6634,0.75426 14.6851,1.19723 18.9255,-2.39449 2.2947,-1.93953 2.625,-4.57347 2.5149,-7.02782 -0.1835,-4.78897 -1.6521,-9.67372 -0.6976,-14.45073 a 68.359995,44.585327 0 0 1 3.4145,-8.30886 l 9.7289,-18.52135 c 3.2675,-6.30946 6.5715,-12.66682 7.8382,-19.27561 0.459,-2.39448 0.4222,-5.11222 -2.3864,-6.62075 a 6.773587,4.4178265 0 0 0 -2.423,-0.81413 c -0.1105,-5.7707 -1.2665,-11.54141 -0.7709,-17.31214 0.1278,-1.44866 0.3487,-2.88535 0.5322,-4.32203 a 31.591716,20.604552 0 0 1 4.5342,3.49595 c 3.1389,3.19663 4.2954,7.43488 9.0865,9.57793 4.0752,1.80784 10.1145,1.72404 12.9781,4.35798 a 18.980729,12.379492 0 0 1 2.056,3.23256 35.556744,23.190595 0 0 0 7.3425,7.61446 59.25512,38.647003 0 0 0 4.5341,7.59051 l 8.077,11.13437 a 194.58,126.90776 0 0 0 9.1783,11.69706 50.939577,33.223492 0 0 1 6.1495,7.73418 c 2.5882,5.92635 -1.6337,12.41543 -8.3157,16.7614 -6.6818,4.34601 -15.493,6.86021 -24.1756,9.19482 a 6.5716643,4.2861297 0 0 0 -2.4598,0.95781 4.7543606,3.1008592 0 0 0 -1.1197,2.08319 c 0,2.76564 3.4878,5.12421 7.4896,5.98622 a 28.54452,18.617128 0 0 0 12.5374,0.29932 c 23.4598,-1.85573 46.8461,-5.6031 67.5891,-13.026 a 24.249074,15.81558 0 0 0 8.0586,-4.05865 9.4169382,6.1418563 0 0 0 1.3767,-6.35737 z"
           inkscape:connector-curvature="0"
           style="fill:url(#a6110406-8b9c-48da-9b9b-78691cfdbd93);stroke-width:1.48247492" />
        <path
           id="path3926"
           d="m 1258.9991,6.2982209 q 5.874,5.8665041 11.014,12.0442651 a 68.2315,44.501521 0 0 1 5.8006,8.572263 c 2.1294,4.788977 2.0743,9.901196 3.6713,14.797921 1.8358,5.746759 6.1311,11.230142 6.1311,17.108616 a 37.741179,24.615314 0 0 1 -7.7465,14.079574 103.31097,67.380834 0 0 1 -16.1904,10.906886 344.51677,224.69855 0 0 1 -22.9092,-73.283239 c -0.1835,-3.4839852 -0.2201,-7.0637476 1.7256,-10.30827084 1.1932,-2.02333816 6.9205,-7.60249766 10.6102,-5.41154666 1.3399,0.802166 1.6888,4.40586946 2.5148,5.61508416 a 67.662444,44.130376 0 0 0 5.3785,5.87844724 z"
           inkscape:connector-curvature="0"
           style="fill:#2f2e41;stroke-width:1.48247492" />
        <path
           id="path3928"
           d="m 1258.9991,6.2982209 q 5.874,5.8665041 11.014,12.0442651 a 68.2315,44.501521 0 0 1 5.8006,8.572263 c 2.1294,4.788977 2.0743,9.901196 3.6713,14.797921 1.8358,5.746759 6.1311,11.230142 6.1311,17.108616 a 37.741179,24.615314 0 0 1 -7.7465,14.079574 103.31097,67.380834 0 0 1 -16.1904,10.906886 344.51677,224.69855 0 0 1 -22.9092,-73.283239 c -0.1835,-3.4839852 -0.2201,-7.0637476 1.7256,-10.30827084 1.1932,-2.02333816 6.9205,-7.60249766 10.6102,-5.41154666 1.3399,0.802166 1.6888,4.40586946 2.5148,5.61508416 a 67.662444,44.130376 0 0 0 5.3785,5.87844724 z"
           inkscape:connector-curvature="0"
           style="opacity:0.1;stroke-width:1.48247492" />
        <path
           id="path3930"
           d="m 1061.9409,19.372117 c -7.1774,-0.766228 -15.1442,-0.395078 -20.7246,2.645908 a 17.108356,11.158305 0 0 0 -5.9475,7.375019 c -0.4773,3.32833 2.4781,7.255289 7.5813,7.518678 a 24.175647,15.767689 0 0 0 3.6713,-0.155629 54.849533,35.773619 0 0 1 9.6189,0.514809 39.264776,25.609027 0 0 0 33.4639,-8.811712 c 4.3873,-3.531854 -1.3949,-5.136173 -6.5716,-5.854507 -7.0856,-0.981749 -14.006,-2.466324 -21.0917,-3.232566 z"
           inkscape:connector-curvature="0"
           style="fill:#fbbebe;stroke-width:1.48247492" />
        <path
           id="path3932"
           d="m 1184.7099,127.48316 4.5524,21.09543 a 49.012133,31.966387 0 0 1 0.6975,6.58482 c -0.5322,4.96857 -4.589,9.43428 -7.5078,14.03169 -2.9187,4.59741 -4.6993,10.09277 -0.826,14.36692 1.1931,1.32895 2.8637,2.46633 3.9466,3.84314 a 23.863586,15.564158 0 0 1 1.8357,6.75246 l 1.2483,29.93107 a 288.80446,188.36223 0 0 0 42.5505,-0.14366 2.3863586,1.5564158 0 0 0 1.5421,-0.32325 2.4597851,1.6043056 0 0 0 0.5323,-1.07753 c 0.6241,-7.00387 -1.2483,-14.01972 -0.6426,-21.02359 0.2203,-2.5621 0.771,-5.12419 0.8445,-7.68629 0.2203,-10.42799 -7.6731,-20.64047 -5.2867,-30.9607 a 105.56883,68.853442 0 0 1 2.937,-7.69828 c 7.5447,-17.89878 5.9476,-36.8272 4.2772,-55.360509 a 2.0192264,1.3169672 0 0 0 -0.3671,-0.850048 2.0742964,1.3528846 0 0 0 -0.9915,-0.347196 52.279609,34.097479 0 0 0 -47.3232,5.878463 c -2.0009,1.05357 -7.0489,2.05926 -8.3706,3.31637 -1.8357,1.75995 0.5691,3.49594 1.6338,5.36364 a 104.19209,67.95551 0 0 1 4.7176,14.30705 z"
           inkscape:connector-curvature="0"
           style="fill:#3f3d56;stroke-width:1.48247492" />
        <path
           id="path3934"
           d="m 1184.7099,127.48316 4.5524,21.09543 a 49.012133,31.966387 0 0 1 0.6975,6.58482 c -0.5322,4.96857 -4.589,9.43428 -7.5078,14.03169 -2.9187,4.59741 -4.6993,10.09277 -0.826,14.36692 1.1931,1.32895 2.8637,2.46633 3.9466,3.84314 a 23.863586,15.564158 0 0 1 1.8357,6.75246 l 1.2483,29.93107 a 288.80446,188.36223 0 0 0 42.5505,-0.14366 2.3863586,1.5564158 0 0 0 1.5421,-0.32325 2.4597851,1.6043056 0 0 0 0.5323,-1.07753 c 0.6241,-7.00387 -1.2483,-14.01972 -0.6426,-21.02359 0.2203,-2.5621 0.771,-5.12419 0.8445,-7.68629 0.2203,-10.42799 -7.6731,-20.64047 -5.2867,-30.9607 a 105.56883,68.853442 0 0 1 2.937,-7.69828 c 7.5447,-17.89878 5.9476,-36.8272 4.2772,-55.360509 a 2.0192264,1.3169672 0 0 0 -0.3671,-0.850048 2.0742964,1.3528846 0 0 0 -0.9915,-0.347196 52.279609,34.097479 0 0 0 -47.3232,5.878463 c -2.0009,1.05357 -7.0489,2.05926 -8.3706,3.31637 -1.8357,1.75995 0.5691,3.49594 1.6338,5.36364 a 104.19209,67.95551 0 0 1 4.7176,14.30705 z"
           inkscape:connector-curvature="0"
           style="opacity:0.1;stroke-width:1.48247492" />
        <path
           id="path3936"
           d="m 1269.7559,121.14974 c -2.1477,2.9093 -5.0297,5.62704 -6.3146,8.75185 -3.3409,8.24901 5.3051,16.76141 4.2772,25.21394 -0.3306,2.65788 -1.5971,5.26786 -1.6888,7.93772 -0.092,2.66985 1.4135,5.62704 5.048,6.8602 2.4415,0.82611 5.5069,0.7423 7.8015,1.67614 3.8733,1.53247 4.3139,5.05237 3.9283,7.98562 -0.3854,2.93324 -1.0279,6.23761 1.8357,8.54831 2.1844,1.78389 5.9292,2.46631 8.2789,4.15444 a 31.665143,20.65244 0 0 1 3.5427,3.91497 c 3.5061,3.98683 9.9125,6.44117 15.1625,9.50611 5.25,3.06494 9.6925,7.74615 7.3428,12.08017 -1.7257,3.19666 -6.5718,5.14816 -11.2344,6.65668 a 119.13436,77.701065 0 0 1 -26.7455,6.15383 6.2228889,4.0586535 0 0 1 -3.0656,0.10773 6.5533078,4.2741574 0 0 1 -2.6799,-1.19724 c -5.4153,-3.44806 -11.014,-7.07571 -13.5105,-11.74497 a 18.742092,12.223851 0 0 0 -2.0559,-3.20859 c -2.8638,-2.61 -8.903,-2.52619 -12.9782,-4.32205 -4.7726,-2.11913 -5.9292,-6.33342 -9.0498,-9.50612 -3.1206,-3.17269 -7.6913,-5.05236 -11.0138,-7.85391 -5.6171,-4.6453 -6.9939,-10.84702 -11.014,-16.1508 a 115.20605,75.138965 0 0 1 -5.25,-6.70456 55.785721,36.384214 0 0 1 -2.5149,-8.66804 c -2.5883,-13.97182 -9.1783,-28.06338 -5.0297,-41.90351 0.9178,-3.05297 2.3312,-5.98622 2.9187,-9.12298 1.0095,-5.43549 -0.5875,-10.978737 0.6424,-16.402241 a 6.8470134,4.4657162 0 0 1 2.7719,-3.472001 7.3426419,4.7889719 0 0 1 3.1573,-0.431003 217.70932,141.99301 0 0 1 32.6381,0.478898 c 5.507,0.359166 11.6747,1.089497 14.9789,4.010751 2.8085,2.51422 2.6617,5.890446 3.5613,8.943416 1.1197,3.74737 4.0383,5.80664 7.1039,8.75185 3.0655,2.9452 1.4868,5.91437 -0.8445,8.95537 z"
           inkscape:connector-curvature="0"
           style="fill:#3f3d56;stroke-width:1.48247492" />
        <path
           id="path3938"
           d="m 1227.5359,218.47363 c 2.9003,0 6.1127,-0.1197 8.3521,1.08949 2.7904,1.48457 2.827,4.22625 2.3864,6.56089 -1.2849,6.56088 -4.5707,12.87035 -7.8565,19.15588 l -9.7656,18.67699 a 67.919437,44.29799 0 0 0 -3.4145,8.249 c -0.9546,4.78898 0.5139,9.57795 0.6976,14.36692 0,2.39448 -0.2387,5.05237 -2.5333,6.96796 -4.1486,3.48397 -12.2438,3.07691 -18.9072,2.39448 l -32.5095,-3.59172 a 38.714079,25.249854 0 0 1 -8.0404,-1.29304 52.665098,34.3489 0 0 1 -7.8014,-2.8614 120.01548,78.275743 0 0 0 -20.1923,-5.98621 c -3.0471,-0.75427 -6.4615,-1.7001 -7.563,-3.69949 -1.3033,-2.39448 1.5971,-5.01644 5.1949,-5.98621 3.5979,-0.96977 7.6181,-0.71835 11.5096,-0.63454 a 85.762056,55.935189 0 0 0 28.2692,-2.50224 18.062898,11.780871 0 0 0 7.4528,-2.50223 18.540171,12.092154 0 0 0 4.2037,-5.4714 128.95515,84.106314 0 0 0 4.9195,-19.1559 c 0.3855,-4.78897 0.1286,-9.57794 0.4223,-14.36691 0.1835,-2.84944 -0.2387,-11.97242 3.5794,-13.92392 2.9187,-1.46065 14.924,2.56209 18.8707,3.1607 a 91.783022,59.862146 0 0 0 22.7255,1.3529 z"
           inkscape:connector-curvature="0"
           style="fill:#2f2e41;stroke-width:1.48247492" />
        <path
           id="path3940"
           d="m 1334.5732,231.75104 c 3.1757,6.87219 3.6713,14.1155 5.7271,21.16726 2.0562,7.05175 5.6907,14.25917 13.7126,19.1559 a 17.78755,11.601284 0 0 1 3.9834,2.87337 9.288442,6.0580493 0 0 1 -1.3768,6.26158 24.285787,15.839525 0 0 1 -8.0586,4.02274 c -20.7246,7.38699 -44.0559,11.09844 -67.5707,12.94219 a 28.195745,18.389651 0 0 1 -12.5192,-0.28734 c -4.0016,-0.88596 -7.5446,-3.23256 -7.4711,-5.98621 a 4.6442209,3.0290247 0 0 1 1.1015,-2.05926 6.645091,4.3340194 0 0 1 2.4781,-0.95779 c 8.6643,-2.31068 17.4571,-4.78897 24.1572,-9.12299 6.7002,-4.33402 10.9038,-10.77519 8.3155,-16.59378 a 49.562833,32.325559 0 0 0 -6.1495,-7.67435 199.22423,129.93678 0 0 1 -9.1783,-11.61325 l -8.0767,-11.05054 c -2.3681,-3.23257 -4.7545,-6.5609 -5.1583,-10.12868 a 74.197395,48.39256 0 0 0 29.7745,-3.11282 46.33207,30.218412 0 0 0 12.2438,-4.78899 c 3.1205,-1.70008 5.9659,-4.87277 10.1695,-2.64591 3.3777,1.77192 5.5071,6.75246 7.4896,9.29062 a 105.18334,68.60202 0 0 1 6.4064,10.30825 z"
           inkscape:connector-curvature="0"
           style="fill:#2f2e41;stroke-width:1.48247492" />
        <path
           id="path3942"
           d="m 1216.2098,-42.633085 c 0.8077,4.585439 7.6363,7.626425 14.1529,9.434269 l -41.2472,8.632129 c 2.6617,-3.328343 0.5139,-7.387003 -2.1294,-10.775199 a 91.966588,59.981872 0 0 0 -7.3425,-7.66235 c -0.404,-0.38312 -0.8628,-0.850048 -0.5691,-1.269066 a 2.0559398,1.3409121 0 0 1 1.1563,-0.586659 c 8.4808,-2.466324 17.2186,-5.016442 26.4887,-5.914385 2.6799,-0.26339 7.7463,-0.957796 9.7472,0.814137 2.001,1.771905 -0.6423,5.208009 -0.2569,7.327124 z"
           inkscape:connector-curvature="0"
           style="fill:#fbbebe;stroke-width:1.48247492" />
        <path
           id="path3944"
           d="m 1216.2098,-42.633085 c 0.8077,4.585439 7.6363,7.626425 14.1529,9.434269 l -41.2472,8.632129 c 2.6617,-3.328343 0.5139,-7.387003 -2.1294,-10.775199 a 91.966588,59.981872 0 0 0 -7.3425,-7.66235 c -0.404,-0.38312 -0.8628,-0.850048 -0.5691,-1.269066 a 2.0559398,1.3409121 0 0 1 1.1563,-0.586659 c 8.4808,-2.466324 17.2186,-5.016442 26.4887,-5.914385 2.6799,-0.26339 7.7463,-0.957796 9.7472,0.814137 2.001,1.771905 -0.6423,5.208009 -0.2569,7.327124 z"
           inkscape:connector-curvature="0"
           style="opacity:0.1;stroke-width:1.48247492" />
        <ellipse
           id="circle3946"
           cy="-60.005085"
           cx="1192.2362"
           style="fill:#fbbebe;stroke-width:1.48247492"
           rx="32.344337"
           ry="21.095421" />
        <path
           id="path3948"
           d="m 1164.2789,113.59514 c 3.1391,2.39449 8.6644,2.92127 13.4922,2.39449 11.2894,-1.19725 20.5227,-6.62075 31.5733,-8.58423 13.5473,-2.39448 27.8838,0.6944 40.6783,4.45373 12.7944,3.75935 25.5157,8.32085 39.5034,9.03919 -12.6478,-18.38965 -5.4152,-40.526664 -17.5122,-59.07196 -2.9554,-4.537558 -7.0856,-8.907489 -7.7466,-13.816184 -0.826,-6.093969 3.8366,-11.972429 4.5525,-18.030487 0.6609,-5.399563 -1.8357,-10.775185 -4.222,-15.911357 q -4.424,-9.4821643 -8.8478,-18.9762985 c -3.3043,-7.0757055 -6.7002,-14.2591575 -13.1066,-20.3531265 -2.368,-2.238846 -3.084,-6.76442 -6.6818,-8.129291 -7.8567,-2.957179 -19.7701,0.778226 -28.2876,0.98175 -8.5175,0.203538 -16.2823,4.154437 -21.257,8.608175 -5.2684,4.788964 -8.2605,10.344183 -11.0139,15.8993885 a 231.12801,150.74486 0 0 0 -9.7841,25.4174625 c -0.2754,1.293021 -0.514,2.586056 -0.6975,3.891047 -1.8356,12.295685 0.8445,24.663192 0.9912,37.006772 v 0.08379 c 0.1836,15.671909 -3.6713,31.248028 -4.3872,46.907969 -0.074,2.92127 -0.074,5.99819 2.7534,8.18914 z"
           inkscape:connector-curvature="0"
           style="fill:#2f2e41;stroke-width:1.48247492" />
        <path
           id="path3950"
           d="m 1165.8943,58.426194 c 6.3331,-1.041615 12.0604,-3.711464 16.9799,-6.620761 a 71.590758,46.692474 0 0 0 11.2709,-8.320844 92.040016,60.029762 0 0 0 9.7108,-13.373198 237.0939,154.63589 0 0 0 12.8495,-38.6350315 c 0.4773,-3.5917335 0.6242,-7.4348715 -2.6617,-10.2843175 a 13.290181,8.6680391 0 0 0 -16.062,-2.550117 c -4.3321,1.388798 -7.1407,4.178378 -9.7474,6.836256 -5.1581,5.3037865 -10.353,10.6554545 -13.6757,16.5458853 -1.4685,2.6099965 -2.5515,5.303786 -3.9833,7.925753 a 113.81095,74.22906 0 0 1 -5.0297,7.5785437 c -0.2753,1.29302 -0.514,2.586042 -0.6976,3.891047 -1.7071,12.295684 0.8996,24.651221 1.0463,37.006784 z"
           inkscape:connector-curvature="0"
           style="opacity:0.1;stroke-width:1.48247492" />
        <path
           id="path3952"
           d="m 1213.9519,-21.082715 c 3.2859,2.849445 3.1391,6.740479 2.6801,10.284317 a 237.44269,154.86338 0 0 1 -12.8497,38.647002 90.736696,59.179719 0 0 1 -9.7104,13.361227 70.98499,46.297384 0 0 1 -11.2711,8.320845 c -6.2412,3.72342 -13.8409,7.027809 -22.3033,7.087675 a 42.991167,28.03943 0 0 1 -13.8776,-1.975457 l -68.8556,-15.264847 c -0.6975,-2.562102 2.0742,-5.543222 3.3776,-8.009546 l 3.6713,-7.11163 c 1.0464,-1.963472 2.2579,-4.070617 4.9931,-5.136173 2.7351,-1.065542 7.0673,0.395091 9.3435,1.568395 2.2761,1.173303 4.0017,2.753655 6.2412,3.962869 4.2404,2.298699 9.8392,3.148747 15.236,3.938929 l 15.4746,2.274758 a 65.349512,42.621849 0 0 0 17.2185,1.484588 c 4.3137,-8.584234 12.5192,-16.162777 17.1635,-24.6751751 1.4317,-2.6219669 2.5148,-5.3157565 4.0017,-7.91378264 3.3041,-5.90240176 8.5174,-11.25408326 13.6756,-16.54589926 2.5883,-2.669848 5.3968,-5.459415 9.7474,-6.836256 a 13.235113,8.6321215 0 0 1 16.0436,2.538161 z"
           inkscape:connector-curvature="0"
           style="fill:#2f2e41;stroke-width:1.48247492" />
        <path
           id="path3954"
           d="m 1202.5525,-55.252038 a 16.520944,10.775186 0 0 0 -1.9458,-3.9509 5.1214927,3.3403079 0 0 0 -5.5069,-1.580352 c -3.2309,0.658481 -4.3138,3.926946 -7.6915,4.034706 -2.2762,0.07169 -3.91,-1.436679 -4.6259,-2.861416 -0.7158,-1.424709 -1.1014,-3.017044 -2.8084,-4.022721 a 10.426551,6.8003399 0 0 0 -4.0019,-1.197258 c -7.8382,-1.616277 -15.9335,-4.609381 -18.5402,-9.697672 a 8.8662401,5.7826834 0 0 1 -0.4221,-3.244523 c 1.1932,-3.220583 7.3427,-4.178378 12.0236,-5.351682 4.681,-1.17329 9.1783,-3.148732 13.7674,-4.645291 4.5891,-1.496559 9.9125,-2.586042 14.9606,-1.819814 a 78.125709,50.95466 0 0 1 7.5447,1.843755 c 7.5995,1.712066 16.9062,0.9099 22.7988,4.489662 a 23.73509,15.48035 0 0 1 5.5071,6.285523 c 4.1117,7.434885 6.7184,16.270538 -0.092,22.819463 -4.2037,4.034706 -8.2789,8.644073 -16.3558,9.122971 -9.3986,0.538777 -13.1249,-5.052353 -14.6118,-10.224451 z"
           inkscape:connector-curvature="0"
           style="fill:#2f2e41;stroke-width:1.48247492" />
        <g
           id="g3960"
           style="opacity:0.1"
           transform="matrix(1.8356604,0,0,1.1972429,-364.8996,-606.09155)">
          <path
             id="path3956"
             transform="translate(-105.5,-59.28)"
             d="m 951.57,513.61 c -0.39,-1.18 -0.6,-2.52 -1.52,-3.36 a 5.68,5.68 0 0 0 -2.18,-1 c -4.28,-1.35 -8.68,-3.85 -10.11,-8.1 a 4.92,4.92 0 0 1 -0.22,-2.71 3.56,3.56 0 0 1 0.53,-1.19 c -1.63,0.71 -3.05,1.65 -3.45,3.31 a 4.83,4.83 0 0 0 0.23,2.71 c 1.42,4.25 5.83,6.75 10.1,8.1 a 5.68,5.68 0 0 1 2.18,1 c 0.93,0.84 1.13,2.18 1.53,3.36 0.4,1.18 1.28,2.45 2.52,2.39 1.24,-0.06 1.84,-1.19 2.63,-2.15 -1.09,-0.13 -1.88,-1.27 -2.24,-2.36 z"
             inkscape:connector-curvature="0" />
          <path
             id="path3958"
             transform="translate(-105.5,-59.28)"
             d="m 970.29,525.77 c -5.14,0.47 -7.17,-4.2 -8,-8.52 a 8.65,8.65 0 0 0 -1,-3.29 2.8,2.8 0 0 0 -3,-1.33 c -0.95,0.3 -1.56,1.24 -2.21,2 a 3,3 0 0 1 2.26,1.39 9,9 0 0 1 1.06,3.3 c 0.81,4.32 2.84,9 8,8.52 a 8.2,8.2 0 0 0 5.28,-2.73 7.45,7.45 0 0 1 -2.39,0.66 z"
             inkscape:connector-curvature="0" />
        </g>
        <path
           id="path3962"
           d="m 101.15623,-147.81089 c -83.669416,-9.57794 -180.941056,-7.9018 -285.81234,0 21.27531,-78.6828 22.26657,-155.7613 0,-230.98408 h 285.81234 a 998.15873,651.01283 0 0 1 0,230.98408 z"
           inkscape:connector-curvature="0"
           style="fill:#f2f2f2;stroke-width:1.48247492" />
        <rect
           id="rect3964"
           height="21.275007"
           width="99.419365"
           y="-391.96469"
           x="-83.529556"
           style="fill:#3f3d56;stroke-width:1.48247492" />
        <rect
           id="rect3966"
           height="15.564158"
           width="176.22342"
           y="-87.170547"
           x="347.33667"
           style="fill:#ff4500;stroke-width:1.48247492" />
        <rect
           id="rect3968"
           height="15.564158"
           width="176.22342"
           y="-54.844986"
           x="347.33667"
           style="fill:#ff4500;stroke-width:1.48247492" />
        <rect
           id="rect3970"
           height="15.564158"
           width="176.22342"
           y="-554.09528"
           x="582.30121"
           style="fill:#ff4500;stroke-width:1.48247492" />
        <rect
           id="rect3972"
           height="15.564158"
           width="176.22342"
           y="-521.76971"
           x="582.30121"
           style="fill:#ff4500;stroke-width:1.48247492" />
        <rect
           id="rect3974"
           height="15.564158"
           width="176.22342"
           y="-336.19705"
           x="-122.59242"
           style="fill:#ff4500;stroke-width:1.48247492" />
        <path
           id="path3976"
           d="m -130.74276,257.49177 35.134544,-13.46899 a 84.44038,55.073176 0 0 0 -17.971114,-14.01971 l -66.2857,13.44504 51.94919,-19.92213 a 84.44038,55.073176 0 0 0 -125.00847,48.30877 c 0,30.42193 37.79623,31.4755 84.44038,31.4755 46.64413,0 84.440374,-1.05357 84.440374,-31.4755 a 83.981466,54.773864 0 0 0 -7.25086,-22.34056 z"
           inkscape:connector-curvature="0"
           style="fill:#ff4500;stroke-width:1.48247492" />
        <path
           id="path3978"
           d="m -121.80309,287.06367 a 65.735002,42.87327 0 0 0 -12.44578,-6.38131 c -6.3881,-2.76563 -12.97812,-5.57915 -20.50434,-6.52496 -6.60837,-0.81414 -13.41867,-0.1197 -20.19225,-0.37115 a 47.194831,30.781116 0 0 1 -30.85744,-9.21879 c -4.79109,-3.24451 -8.57255,-7.18345 -14.33653,-9.68567 -6.22289,-2.66985 -14.11622,-3.24454 -21.49558,-2.57409 a 53.362649,34.803851 0 0 0 -6.35138,0.85005 84.073249,54.833727 0 0 0 -4.993,18.677 c 0,30.42193 37.79624,31.4755 84.44039,31.4755 22.63368,0 43.17473,-0.25141 58.33729,-3.98681 l -2.47815,-3.02902 a 65.881854,42.969049 0 0 0 -9.12323,-9.23075 z"
           inkscape:connector-curvature="0"
           style="opacity:0.1;stroke-width:1.48247492" />
        <path
           id="path3980"
           d="m 732.34809,213.56492 -46.60742,-17.8389 a 112.37913,73.295211 0 0 1 23.86358,-18.59319 l 87.90978,17.82695 -68.89235,-26.41119 a 111.97529,73.031824 0 0 1 165.77852,64.06447 c 0,40.33511 -50.1319,41.72392 -111.9753,41.72392 -61.8434,0 -111.97528,-1.38881 -111.97528,-41.72392 a 111.55308,72.756453 0 0 1 9.56378,-29.70359 z"
           inkscape:connector-curvature="0"
           style="fill:#ff4500;stroke-width:1.48247492" />
        <path
           id="path3982"
           d="m 720.47137,252.77463 a 89.268169,58.221924 0 0 1 16.52094,-8.4645 c 8.46239,-3.65159 17.21849,-7.39896 27.18613,-8.6441 8.7561,-1.0895 17.78755,-0.1676 26.69049,-0.50284 a 62.412455,40.706261 0 0 0 40.93524,-12.22385 c 6.35138,-4.29811 11.36274,-9.57795 19.01745,-12.84642 8.24211,-3.59173 18.70537,-4.28614 28.48944,-3.41213 a 78.217492,51.014521 0 0 1 8.44404,1.1254 111.77336,72.900125 0 0 1 6.60839,24.78293 c 0,40.33511 -50.13191,41.72391 -111.9753,41.72391 -30.01304,0 -57.25425,-0.32326 -77.3731,-5.26788 l 3.35927,-4.09455 a 88.203485,57.527523 0 0 1 12.09701,-12.17597 z"
           inkscape:connector-curvature="0"
           style="opacity:0.1;stroke-width:1.48247492" />
        <text
           id="text3984"
           height="130"
           width="130"
           y="331.52869"
           x="-364.69476"
           style="font-size:78.01343536px;fill:#ff4500;stroke-width:6.50111961"
           transform="scale(0.76601022,1.3054656)">
          <tspan
             style="font-style:normal;font-variant:normal;font-weight:normal;font-stretch:normal;font-size:101.64408112px;font-family:'Ubuntu Mono';-inkscape-font-specification:'Ubuntu Mono';stroke-width:6.50111961"
             id="tspan4041">Lets Start Enter your first element</tspan>
        </text>
        <path
           id="path3904-3"
           stroke-miterlimit="10"
           d="m -142.24213,516.74069 c 0,0 -13.91734,153.23775 186.22722,174.0983"
           inkscape:connector-curvature="0"
           style="fill:none;stroke:#3f3d56;stroke-width:3.37161517;stroke-miterlimit:10" />
        <path
           id="path3906-7"
           d="m 68.7298,693.48489 c -10.9222,1.38878 -24.74471,4.27413 -33.79453,7.92574 l 9.04982,-10.57164 -3.41433,-11.90064 c 6.79194,5.33977 18.48509,10.95477 28.15904,14.54654 z"
           inkscape:connector-curvature="0"
           style="fill:#3f3d56;stroke-width:1.48247492" />
      </g>
    </g>
  </g>
</svg>
